<?xml version="1.0" encoding="UTF-8" standalone="no"?>
<!-- Created with Inkscape (http://www.inkscape.org/) -->

<svg
   width="117.83685mm"
   height="56.520874mm"
   viewBox="0 0 117.83685 56.520874"
   version="1.1"
   id="svg5"
   xml:space="preserve"
   inkscape:version="1.2.2 (732a01da63, 2022-12-09)"
   sodipodi:docname="Logo 1.0 .svg"
   xmlns:inkscape="http://www.inkscape.org/namespaces/inkscape"
   xmlns:sodipodi="http://sodipodi.sourceforge.net/DTD/sodipodi-0.dtd"
   xmlns="http://www.w3.org/2000/svg"
   xmlns:svg="http://www.w3.org/2000/svg"><sodipodi:namedview
     id="namedview7"
     pagecolor="#505050"
     bordercolor="#eeeeee"
     borderopacity="1"
     inkscape:showpageshadow="0"
     inkscape:pageopacity="0"
     inkscape:pagecheckerboard="0"
     inkscape:deskcolor="#505050"
     inkscape:document-units="mm"
     showgrid="false"
     showguides="true"
     inkscape:zoom="0.125"
     inkscape:cx="296"
     inkscape:cy="1920"
     inkscape:window-width="1920"
     inkscape:window-height="1137"
     inkscape:window-x="-8"
     inkscape:window-y="-8"
     inkscape:window-maximized="1"
     inkscape:current-layer="text5636-0" /><defs
     id="defs2" /><g
     inkscape:groupmode="layer"
     id="g4656"
     inkscape:label="Variants"
     transform="translate(339.38575,-139.61946)"><g
       id="g4134-1-3-4"
       inkscape:label="No Text Light"
       transform="translate(-406.27676,-54.986888)"><g
         id="g4034-5-1-5"
         inkscape:label="Harakas"><path
           style="fill:#000000;fill-opacity:1;stroke:#ffffff;stroke-width:0.7;stroke-linecap:butt;stroke-linejoin:round;stroke-dasharray:none;stroke-opacity:1"
           d="m 67.305201,207.01413 c 0,0 -0.38002,-0.6022 0.70743,-1.49671 1.08745,-0.89452 4.876,-3.35591 6.66503,-5.51912 1.78904,-2.16321 2.95834,-4.59536 6.23239,-4.99293 3.27405,-0.39756 6.91059,1.64872 11.44749,6.0453 4.5369,4.39659 9.728609,9.26089 23.666709,12.81558 13.93811,3.55468 27.26818,8.04481 37.60483,8.51253 9.76447,1.38261 30.81478,2.56033 30.74864,5.27231 -0.36503,0.45644 -15.01511,1.38906 -30.75782,-0.59532 -2.75607,-0.28663 -18.25625,-2.82773 -25.0858,-0.69453 -1.94579,0.80477 -3.48282,1.53666 -7.99633,6.23726 -0.22607,0.30402 -1.59026,2.19829 -1.94105,3.95225 0.078,0.38977 0.0234,3.06358 -2.19829,3.99902 -0.13252,0.25725 -1.09915,-0.51449 -3.06358,7.10937 0.39757,0.0546 1.59026,-0.14032 2.12814,0.0935 0.0516,0.0307 0.0585,0.14178 0.0526,0.31279 0.16029,0.0249 0.96467,-0.0292 0.90328,1.05822 -0.0692,-0.14226 -0.37125,-0.69866 -0.90328,-0.48526 -0.01,0.0224 -0.15786,0.23678 -0.15786,0.23678 0,0 -0.98514,-0.43556 -2.06382,-0.0146 -0.26504,-0.0935 -1.18684,-0.73959 -2.67186,-0.21925 -0.0117,0.0312 -0.12863,0.28648 -0.15786,0.62558 0.18709,-0.0234 1.99951,-0.25724 2.38538,0.13447 0.0157,0.0294 0.0286,0.0675 0.0307,0.1915 0.051,-0.003 1.06453,-0.10129 0.93638,1.18442 -0.0455,-0.12058 -0.0992,-0.57051 -0.58498,-0.61598 -0.0203,-10e-4 -0.22118,-0.0517 -0.32866,0.14779 -0.0255,0.0417 -0.12609,0.1571 -0.3235,0.15917 -0.26768,-0.0954 -0.44904,-0.51732 -2.12114,-0.0438 -0.26894,-0.0292 -1.06407,-0.77758 -3.32668,-0.21632 -0.17539,-0.0234 -3.02265,-0.38002 -4.07502,-0.26309 -0.30987,-0.14422 -1.9352,-0.9179 -2.71863,0.0409 0.008,-0.10767 -0.0424,-0.47649 0.4341,-0.69281 0.1983,-0.0477 0.18563,-0.16955 1.39878,-0.1637 0.14324,0.003 0.7659,0.0468 0.83313,0.0672 0.0234,-0.0477 0.0848,-0.18124 1.23654,-0.16078 1.15176,0.0205 1.66918,0.0731 1.66918,0.0731 0,0 -0.0351,-0.0877 0.18417,-0.14909 0.21924,-0.0614 1.23361,-0.11108 2.19829,0.0526 0,-0.004 0.36541,-0.55542 0.36541,-0.55542 l -2.44969,-0.0322 c -0.0131,-0.1571 -1.23417,-0.7731 -2.17262,0.13641 -0.0248,-0.0882 -0.0372,-0.41755 0.28112,-0.68627 0.31833,-0.26871 1.36426,-0.38447 2.03399,-0.23151 0.14883,-0.17225 0.24391,-0.33073 2.75332,-0.0827 0.0193,-0.0551 3.41258,-5.74836 3.69321,-9.06918 -0.0624,-0.72497 -0.51449,-2.08137 -3.5313,-2.87649 -3.0168,-0.79513 -14.569519,-3.62485 -18.124209,-8.27868 -3.55468,-4.65383 -3.55468,-3.50791 -7.53032,-13.47038 -0.56995,-1.01643 -4.5872,-7.82831 -7.48108,-7.56373 -2.89388,0.26458 -8.49161,1.30795 -8.82486,0.71161 z"
           id="path4028-5-9-7" /><path
           style="fill:#ffffff;fill-opacity:1;stroke-width:1.303;stroke-linejoin:bevel"
           d="m 91.360658,227.46474 c 0,0 -0.899405,-11.52139 -0.131548,-10.27819 4.91108,7.95127 28.85865,5.32803 28.85865,5.32803 0,0 0.39687,0.008 0.57877,1.0666 0.18191,1.05834 0.0662,2.90215 -0.38033,4.53926 -0.44649,1.63711 -1.2237,3.9026 -0.97565,4.9444 0.0193,0.15572 0.20257,0.29352 0.56637,0.0744 0.3638,-0.2191 0.61185,-0.47542 0.61185,-0.47542 0,0 -1.29398,1.76527 -1.49655,2.64997 -0.0138,0 -0.41893,-0.54091 -2.60553,-0.5643 -0.47783,-0.0627 -3.9464,-0.0468 -6.01607,0.95883 -0.26504,-0.0468 -4.42421,-1.09998 -7.48355,-1.99951 -5.343941,-1.57126 -10.670556,-4.79546 -11.526412,-6.24408 z"
           id="path4030-5-8-8"
           sodipodi:nodetypes="csccscsccccscc" /><path
           style="fill:#ffffff;fill-opacity:1;stroke-width:1.303;stroke-linejoin:bevel"
           d="m 116.98681,214.65023 c -0.40925,-0.0351 -5.0844,-1.19376 -8.82617,-0.19985 -3.74178,0.99391 -7.76418,1.29793 -9.529832,1.05238 -0.830207,-0.0234 -2.630935,-0.0935 -2.946649,-0.0935 -0.315712,0 -2.8531,0.18709 -3.04019,-0.8419 -0.187089,-1.02898 0.572958,-2.28014 4.057486,-3.04019 3.484525,-0.76004 9.062105,0.1754 9.623375,0.38587 0.56126,0.21048 4.07071,0.68197 4.25413,0.75178 1.27755,0.29986 6.26316,1.6045 6.40785,1.98541 z"
           id="path4032-8-3-8"
           sodipodi:nodetypes="cscsssscc" /></g></g></g></svg>
